<svg xmlns="http://www.w3.org/2000/svg" width="16.496" height="16.498" viewBox="0 0 16.496 16.498">
  <path id="Path_1095" data-name="Path 1095" d="M536.891-519.994a8.25,8.25,0,0,1,8.238,8.274,8.253,8.253,0,0,1-8.257,8.224,8.252,8.252,0,0,1-8.239-8.275A8.253,8.253,0,0,1,536.891-519.994Zm.576,5.693c0-.7,0-1.4,0-2.093a.578.578,0,0,0-.6-.645.576.576,0,0,0-.57.641c0,1.535-.007,3.069.007,4.6a.7.7,0,0,0,.2.48q1.476,1.22,2.986,2.4a.557.557,0,0,0,.819-.141.584.584,0,0,0-.184-.842c-.809-.655-1.62-1.307-2.439-1.95a.5.5,0,0,1-.224-.454C537.476-512.97,537.467-513.635,537.467-514.3Z" transform="translate(-528.634 519.994)" fill="#8bb8c0"/>
</svg>
