<svg xmlns="http://www.w3.org/2000/svg" width="460.477" height="389.331" viewBox="0 0 460.477 389.331">
  <g id="undraw_online_media_re_r9qv" transform="translate(60)">
    <path id="Path_1013" data-name="Path 1013" d="M462.482,722.816l-.427-9.591a30.973,30.973,0,0,0-14.448-3.657c6.939,5.673,6.072,16.609,10.777,24.239a18.632,18.632,0,0,0,13.663,8.61l5.807,3.555a31.221,31.221,0,0,0-6.581-25.3,30.161,30.161,0,0,0-5.543-5.15C464.34,719.189,462.482,722.816,462.482,722.816Z" transform="translate(-185.142 -358.333)" fill="#f2f2f2"/>
    <path id="Path_1014" data-name="Path 1014" d="M484.779,379.334a49.623,49.623,0,0,1-18.452-51.078q.175-.712.368-1.422c3.1-11.346,10.782-22.13,21.972-25.756,9.4-3.044,19.653-.7,29.455-1.914,19.243-2.376,34.162-17.946,44.659-34.248s18.565-34.549,32.513-48.017c22.992-22.2,60.5-26.979,89-12.529s46.665,46.509,45.891,78.459-19.742,62.5-47.288,78.7c-10.119,5.954-21.823,10.172-33.471,8.7-10.107-1.281-19.29-6.711-29.349-8.323-15.815-2.535-31.529,4.616-45.208,12.948s-26.891,18.209-42.436,22.072C517.346,400.678,498.647,389.9,484.779,379.334Z" transform="translate(-447.469 -154.597)" fill="#d9ebef"/>
    <path id="Path_1015" data-name="Path 1015" d="M399.828,263.3H555.8a12.283,12.283,0,0,1,12.269,12.269v77.625A12.283,12.283,0,0,1,555.8,365.462H399.828a12.279,12.279,0,0,1-12.269-12.269V275.568A12.279,12.279,0,0,1,399.828,263.3Z" transform="translate(-238.642 -181.251)" fill="#fff"/>
    <path id="Path_1016" data-name="Path 1016" d="M399.436,365.669H555.4A12.887,12.887,0,0,0,568.274,352.8V275.169A12.887,12.887,0,0,0,555.4,262.3H399.436a12.887,12.887,0,0,0-12.872,12.872V352.8A12.887,12.887,0,0,0,399.436,365.669ZM555.4,263.5a11.679,11.679,0,0,1,11.666,11.666V352.8A11.679,11.679,0,0,1,555.4,364.462H399.436A11.679,11.679,0,0,1,387.77,352.8V275.169A11.679,11.679,0,0,1,399.436,263.5Z" transform="translate(-238.25 -180.853)" fill="#ccc"/>
    <path id="Path_1017" data-name="Path 1017" d="M427.372,462.839H576.836a4.871,4.871,0,1,0,0-9.742H427.372a4.871,4.871,0,1,0,0,9.742Z" transform="translate(-273.36 -256.564)" fill="#e6e6e6"/>
    <path id="Path_1018" data-name="Path 1018" d="M547.646,356.834a5.244,5.244,0,0,0,2.53-.659,5.176,5.176,0,0,0,2.719-4.6V308.256a5.244,5.244,0,0,0-8.056-4.427l-41.1,21.661a5.244,5.244,0,0,0,0,8.853l41.1,21.661a5.22,5.22,0,0,0,2.807.829Z" transform="translate(-292.085 -197.009)" fill="#f2f2f2"/>
    <path id="Path_1019" data-name="Path 1019" d="M798.69,328.347h65.177a5.133,5.133,0,0,0,5.127-5.127V290.78a5.133,5.133,0,0,0-5.127-5.127H798.69a5.133,5.133,0,0,0-5.127,5.127v32.44a5.133,5.133,0,0,0,5.127,5.127Z" transform="translate(-846.554 -190.121)" fill="#fff"/>
    <path id="Path_1020" data-name="Path 1020" d="M798.294,328.553h65.177a5.737,5.737,0,0,0,5.73-5.73V290.383a5.737,5.737,0,0,0-5.73-5.73H798.294a5.737,5.737,0,0,0-5.73,5.73v32.439A5.737,5.737,0,0,0,798.294,328.553Zm65.177-42.693a4.529,4.529,0,0,1,4.524,4.524v32.439a4.529,4.529,0,0,1-4.524,4.524H798.294a4.529,4.529,0,0,1-4.524-4.524V290.383a4.529,4.529,0,0,1,4.524-4.524Z" transform="translate(-846.158 -189.724)" fill="#ccc"/>
    <path id="Path_1021" data-name="Path 1021" d="M816.372,376.339h43.905a4.871,4.871,0,0,0,0-9.742H816.371a4.871,4.871,0,0,0,0,9.742Z" transform="translate(-853.527 -222.24)" fill="#e6e6e6"/>
    <path id="Path_1022" data-name="Path 1022" d="M860.2,325.385a2.191,2.191,0,0,0,1.057-.275,2.163,2.163,0,0,0,1.136-1.921v-18.1a2.191,2.191,0,0,0-3.367-1.85l-17.174,9.052a2.192,2.192,0,0,0,0,3.7l17.174,9.052A2.18,2.18,0,0,0,860.2,325.385Z" transform="translate(-868.464 -196.962)" fill="#8bb8c0"/>
    <path id="Path_1023" data-name="Path 1023" d="M729.69,559.7h65.177a5.133,5.133,0,0,0,5.127-5.127v-32.44a5.133,5.133,0,0,0-5.127-5.127H729.69a5.133,5.133,0,0,0-5.127,5.127v32.44A5.133,5.133,0,0,0,729.69,559.7Z" transform="translate(-673.85 -281.924)" fill="#fff"/>
    <path id="Path_1024" data-name="Path 1024" d="M729.294,559.909h65.177a5.737,5.737,0,0,0,5.73-5.73V521.739a5.737,5.737,0,0,0-5.73-5.73H729.294a5.737,5.737,0,0,0-5.73,5.73v32.44A5.737,5.737,0,0,0,729.294,559.909Zm65.177-42.693a4.529,4.529,0,0,1,4.524,4.524v32.44a4.529,4.529,0,0,1-4.524,4.524H729.294a4.529,4.529,0,0,1-4.524-4.524v-32.44a4.529,4.529,0,0,1,4.524-4.524Z" transform="translate(-673.455 -281.527)" fill="#ccc"/>
    <path id="Path_1025" data-name="Path 1025" d="M747.372,607.839h43.906a4.871,4.871,0,0,0,0-9.742H747.372a4.871,4.871,0,1,0,0,9.742Z" transform="translate(-680.824 -314.1)" fill="#e6e6e6"/>
    <path id="Path_1026" data-name="Path 1026" d="M790.935,558.385a2.19,2.19,0,0,0,1.057-.275,2.163,2.163,0,0,0,1.136-1.921v-18.1a2.192,2.192,0,0,0-3.367-1.85l-17.174,9.052a2.192,2.192,0,0,0,0,3.7l17.174,9.052A2.181,2.181,0,0,0,790.935,558.385Z" transform="translate(-695.34 -289.418)" fill="#8bb8c0"/>
    <path id="Path_1027" data-name="Path 1027" d="M376.8,398.568l33.359.224s19-6.125,27.615-4.845l3.294,12.941L417.4,414.73l-41.188-5.976a5.9,5.9,0,1,1,.586-10.186Z" transform="translate(-99.638 -233.023)" fill="#a0616a"/>
    <path id="Path_1028" data-name="Path 1028" d="M339.161,405.489l39.577-11.383,3.6-13.426a10.841,10.841,0,0,0-.838-11.413h0c-3.379-4.576-6.02-.031-10.815,3.029-8.406.594-29.387,7.773-37.9,16.086l.671,5.11Z" transform="translate(-21.117 -222.529)" fill="#fbca9a"/>
    <path id="Path_1029" data-name="Path 1029" d="M501.145,377.02a5.245,5.245,0,0,0,2.53-.659,5.176,5.176,0,0,0,2.719-4.6V328.442a5.244,5.244,0,0,0-8.056-4.427l-41.1,21.661a5.244,5.244,0,0,0,0,8.853l41.1,21.661a5.218,5.218,0,0,0,2.807.829Z" transform="translate(-217.536 -205.019)" fill="#8bb8c0"/>
    <path id="Path_1030" data-name="Path 1030" d="M160.4,609.725h-8.42l-4.005-32.476H160.4Z" transform="translate(150.816 -229.055)" fill="#a0616a"/>
    <path id="Path_1031" data-name="Path 1031" d="M441.33,751.332h-2.37l-9.253-3.763-4.959,3.762h0A10.567,10.567,0,0,0,414.181,761.9v.344H441.33Z" transform="translate(-127.965 -373.412)" fill="#8e487b"/>
    <path id="Path_1032" data-name="Path 1032" d="M70.764,597.713l-7.975,2.7-14.21-29.475,11.77-3.985Z" transform="translate(300.411 -224.97)" fill="#a0616a"/>
    <path id="Path_1033" data-name="Path 1033" d="M333.517,739.765l-2.245.76-9.971-.6-3.49,5.154h0a10.567,10.567,0,0,0-6.62,13.4l.11.325,25.715-8.707Z" transform="translate(38.811 -370.315)" fill="#8e487b"/>
    <path id="Path_1034" data-name="Path 1034" d="M389.615,524.193a89.377,89.377,0,0,1-1.475,23.1c-2.458,11.306-7.747,48.837-7.747,48.837,10.714,17.609,16.923,34.938,18.1,52.478l-15.08,1.206-21.592-51.232-2.188-51.29L343.9,582.2l.809,2.7a3.038,3.038,0,0,1-1.3,3.448h0s1.473,9.586.49,9.586-3.441,1.475-3.441,1.475c6.128,19.078,6.951,37.348,1.331,54.637l-13.27-.6-8.707-75.171,6.39-40.8.492-7.865,2.212.091,1.126-3.286,2.069-5.653Z" transform="translate(-28.2 -283.41)" fill="#2f2e41"/>
    <path id="Path_1035" data-name="Path 1035" d="M380.574,456.175l.088-.123c4.679-6.551-2.358-22.292-3.42-24.574l4.47-1.451,3.909-33.079,2.859-11.428a25.088,25.088,0,0,0-7.121-24.313l-6.608-6.231-8.031-11.884H353.769l-4.441,8.388a18.877,18.877,0,0,0-14.606,19.273l1.006,22-3.94,27.391,0,4.957-6.84,11.215-1.49,6.953c-.617.814-4.687,6.241-4.687,7.724,0,.223.164.438.517.677,2.774,1.878,18.1,5.707,24.89,2.992,7.228-2.89,35.959,1.445,36.248,1.49Z" transform="translate(-18.309 -212.913)" fill="#fbca9a"/>
    <path id="Path_1036" data-name="Path 1036" d="M269.764,771.062a.716.716,0,0,0,.714.718H439.552a.718.718,0,0,0,0-1.436H270.482a.716.716,0,0,0-.718.714Z" transform="translate(-39.793 -382.449)" fill="#ccc"/>
    <ellipse id="Ellipse_90" data-name="Ellipse 90" cx="17.152" cy="17.152" rx="17.152" ry="17.152" transform="translate(323.109 92.038)" fill="#a0616a"/>
    <path id="Path_1037" data-name="Path 1037" d="M401.379,327.544l26.464,20.311s18.845,6.582,24.943,12.8L447.6,372.965,424,364.935l-29.235-29.623a5.9,5.9,0,1,1,6.614-7.768Z" transform="translate(-124.79 -205.185)" fill="#a0616a"/>
    <path id="Path_1038" data-name="Path 1038" d="M346.315,382.416l36.763,10.765,12.64-4.485a10.842,10.842,0,0,0,6.22-9.606h0c.068-5.688-4.782-3.658-10.452-4.111-7.061-4.6-28.123-11.537-39.931-10.05l-2.549,4.479Z" transform="translate(-47.636 -221.496)" fill="#fbca9a"/>
    <path id="Path_1039" data-name="Path 1039" d="M343.387,272c1.229-.037.807-2.354,1.8-3.093l.015.067a2.414,2.414,0,0,0,4.613.2,3.669,3.669,0,0,1,2.329-2.444,6.017,6.017,0,0,0,3.624,4.939,15,15,0,0,0,6.3,1.114,27.793,27.793,0,0,1,6.411.486,7.306,7.306,0,0,1,5,3.717c.89,1.956.255,4.648-1.691,5.558a3.832,3.832,0,0,1,3.309,2.667,10.592,10.592,0,0,1,.327,4.475c-.424,5.546-1.457,11.518-5.5,15.343-3.078,2.915-7.484,4.09-11.723,4.073s-3.494-.407-7.593-1.489c0,0-3.9-11.172-2.916-12.271a5.283,5.283,0,0,0,1.619-3.968c-.178-1.463-1.749-2.773-3.114-2.216.229-.586.4-.7.51-.668a5.2,5.2,0,0,1-.18-.51,5.8,5.8,0,0,0-3.622-3.841,4.5,4.5,0,0,0-4.917,1.488C333.5,281.411,336.283,272.208,343.387,272Z" transform="translate(-14.886 -182.61)" fill="#2f2e41"/>
    <path id="Path_1040" data-name="Path 1040" d="M415.422,160.326H689.45a1.09,1.09,0,1,0,0-2.18H415.422a1.09,1.09,0,1,0,0,2.18Z" transform="translate(-377.265 -139.526)" fill="#cacaca"/>
    <ellipse id="Ellipse_91" data-name="Ellipse 91" cx="6.386" cy="6.529" rx="6.386" ry="6.529" transform="translate(287.145 0)" fill="#3f3d56"/>
    <ellipse id="Ellipse_92" data-name="Ellipse 92" cx="6.386" cy="6.529" rx="6.386" ry="6.529" transform="translate(265.083 0)" fill="#3f3d56"/>
    <ellipse id="Ellipse_93" data-name="Ellipse 93" cx="6.386" cy="6.529" rx="6.386" ry="6.529" transform="translate(243.021 0)" fill="#3f3d56"/>
    <path id="Path_1041" data-name="Path 1041" d="M821.648,129.959H837.32a1.187,1.187,0,1,1,0,2.373H821.648a1.187,1.187,0,1,1,0-2.373Z" transform="translate(-770.208 -128.34)" fill="#3f3d56"/>
    <path id="Path_1042" data-name="Path 1042" d="M821.648,137.343H837.32a1.187,1.187,0,1,1,0,2.373H821.648a1.187,1.187,0,1,1,0-2.374Z" transform="translate(-770.208 -131.27)" fill="#3f3d56"/>
    <path id="Path_1043" data-name="Path 1043" d="M821.648,144.718H837.32a1.187,1.187,0,1,1,0,2.373H821.648a1.187,1.187,0,1,1,0-2.373Z" transform="translate(-770.208 -134.197)" fill="#3f3d56"/>
    <path id="Path_1044" data-name="Path 1044" d="M614.279,263.3v16.383c0,.814,1.424,1.5,3.342,1.683a.131.131,0,0,1,.048.006c.32.024.658.042,1,.042a8.788,8.788,0,0,0,3.106-.507c.091-.036.181-.078.271-.115s.175-.09.259-.139c.476-.284.754-.615.754-.971V263.3Z" transform="translate(-430.395 -181.251)" fill="#ccc"/>
    <ellipse id="Ellipse_94" data-name="Ellipse 94" cx="7.463" cy="7.463" rx="7.463" ry="7.463" transform="translate(43.1 268.671)" fill="#3f3d56"/>
    <path id="Path_1045" data-name="Path 1045" d="M850.156,585.967h.048a.976.976,0,0,0,.723-.376l1.247-1.6a.976.976,0,0,0-.171-1.37l-.045-.035a.976.976,0,0,0-1.371.171.712.712,0,0,1-1.079.053l-2.532-2.673a.978.978,0,0,0-1.381-.038l-.041.04a.976.976,0,0,0-.037,1.38l3.93,4.148A.975.975,0,0,0,850.156,585.967Z" transform="translate(-799.034 -306.851)" fill="#fff"/>
    <ellipse id="Ellipse_95" data-name="Ellipse 95" cx="7.463" cy="7.463" rx="7.463" ry="7.463" transform="translate(-60 129.936)" fill="#3f3d56"/>
    <path id="Path_1046" data-name="Path 1046" d="M918.156,355.967h.048a.976.976,0,0,0,.723-.376l1.247-1.6a.976.976,0,0,0-.171-1.37l-.045-.035a.976.976,0,0,0-1.371.171.712.712,0,0,1-1.079.052l-2.532-2.673a.978.978,0,0,0-1.381-.038l-.042.04a.976.976,0,0,0-.037,1.38l3.93,4.148A.975.975,0,0,0,918.156,355.967Z" transform="translate(-970.134 -215.585)" fill="#fff"/>
  </g>
</svg>
